<svg width="680" height="651" viewBox="0 0 680 651" fill="none" xmlns="http://www.w3.org/2000/svg">
<g filter="url(#filter0_d_4_2)">
<path d="M339.999 557.422C467.81 557.422 571.422 453.81 571.422 325.999C571.422 198.187 467.81 94.5759 339.999 94.5759C212.187 94.5759 108.576 198.187 108.576 325.999C108.576 453.81 212.187 557.422 339.999 557.422Z" stroke="#2563eb" stroke-width="8.19196"/>
<path d="M339.999 493.934C432.747 493.934 507.934 418.747 507.934 325.999C507.934 233.251 432.747 158.064 339.999 158.064C247.251 158.064 172.064 233.251 172.064 325.999C172.064 418.747 247.251 493.934 339.999 493.934Z" stroke="#2563eb" stroke-width="8.19196"/>
<path d="M339.999 481.646C425.96 481.646 495.646 411.96 495.646 325.999C495.646 240.037 425.96 170.352 339.999 170.352C254.037 170.352 184.352 240.037 184.352 325.999C184.352 411.96 254.037 481.646 339.999 481.646Z" stroke="#2563eb" stroke-width="2.04799" stroke-dasharray="6.14 6.14"/>
<path d="M339.999 92.5279L350.239 78.192H329.759L339.999 92.5279Z" fill="#2563eb"/>
<path d="M339.999 559.47L350.239 573.806H329.759L339.999 559.47Z" fill="#2563eb"/>
<path d="M106.528 325.999L92.192 336.239V315.759L106.528 325.999Z" fill="#2563eb"/>
<path d="M573.47 325.999L587.806 336.239V315.759L573.47 325.999Z" fill="#2563eb"/>
<path d="M130.08 110.96H140.32H130.08ZM135.2 105.84V116.08V105.84Z" fill="#2563eb"/>
<path d="M130.08 110.96H140.32M135.2 105.84V116.08" stroke="#2563eb" stroke-width="4.09598" stroke-linecap="square"/>
<path d="M539.678 110.96H549.918H539.678ZM544.798 105.84V116.08V105.84Z" fill="#2563eb"/>
<path d="M539.678 110.96H549.918M544.798 105.84V116.08" stroke="#2563eb" stroke-width="4.09598" stroke-linecap="square"/>
<path d="M130.08 541.038H140.32H130.08ZM135.2 535.918V546.158V535.918Z" fill="#2563eb"/>
<path d="M130.08 541.038H140.32M135.2 535.918V546.158" stroke="#2563eb" stroke-width="4.09598" stroke-linecap="square"/>
<path d="M539.678 541.038H549.918H539.678ZM544.798 535.918V546.158V535.918Z" fill="#2563eb"/>
<path d="M539.678 541.038H549.918M544.798 535.918V546.158" stroke="#2563eb" stroke-width="4.09598" stroke-linecap="square"/>
<path d="M457.834 515.81C423.634 537.106 383.254 549.409 339.999 549.409C216.712 549.409 116.768 449.465 116.768 326.178C116.768 283.721 128.622 244.033 149.198 210.242C143.918 229.678 151 251.178 168.448 263.396C170.287 264.683 172.184 265.827 174.125 266.83C167.49 285.373 163.872 305.353 163.872 326.178C163.872 423.45 242.727 502.305 339.999 502.305C364.227 502.305 387.312 497.412 408.321 488.562C411.854 495.8 417.216 502.27 424.281 507.216C434.455 514.34 446.389 517.07 457.834 515.81ZM506.96 177.998C487.981 169.781 465.575 174.382 451.393 189.747C421.041 164.936 382.259 150.051 339.999 150.051C298.803 150.051 260.911 164.196 230.913 187.892C229.052 186.087 227.024 184.405 224.833 182.87C207.765 170.919 185.744 171.327 169.387 182.216C210.335 133.736 271.571 102.948 339.999 102.948C406.421 102.948 466.068 131.957 506.96 177.998ZM563.23 326.178C563.23 387.24 538.713 442.575 498.987 482.878C505.573 463.669 499.665 441.795 483.268 428.642C503.951 399.774 516.127 364.399 516.127 326.178C516.127 305.968 512.72 286.554 506.455 268.476C514.751 265.012 522.198 259.235 527.736 251.325C534.349 241.882 537.178 230.921 536.541 220.242C553.566 251.761 563.23 287.841 563.23 326.178Z" fill="#2563eb"/>
<path d="M247.839 465.262C251.232 465.262 253.983 462.511 253.983 459.118C253.983 455.725 251.232 452.974 247.839 452.974C244.446 452.974 241.695 455.725 241.695 459.118C241.695 462.511 244.446 465.262 247.839 465.262Z" fill="#2563eb"/>
<path d="M227.359 442.734C229.621 442.734 231.455 440.9 231.455 438.638C231.455 436.376 229.621 434.542 227.359 434.542C225.097 434.542 223.263 436.376 223.263 438.638C223.263 440.9 225.097 442.734 227.359 442.734Z" fill="#2563eb"/>
<path d="M431.807 156.016L426.014 150.223L420.222 156.016L426.014 161.808L431.807 156.016Z" fill="#2563eb"/>
<path d="M182.304 356.719H176.16V362.863H182.304V356.719Z" fill="#2563eb"/>
<path d="M232.28 240.267C227.732 246.762 220.136 250.675 210.162 252.434C209.72 252.512 209.285 252.488 208.876 252.385C208.35 252.52 207.817 252.648 207.279 252.763C207.203 252.217 207.141 251.673 207.088 251.132C206.852 250.784 206.681 250.383 206.603 249.942C206.481 249.248 206.605 248.569 206.908 247.989C206.796 241.603 208.266 235.612 211.05 230.403L206.443 227.178L202.92 232.21C200.973 234.99 197.142 235.665 194.363 233.718L185.975 227.845L183.625 231.201L186.98 233.55C188.833 234.848 189.284 237.402 187.986 239.255L169.191 266.096C167.894 267.949 165.34 268.4 163.487 267.103L150.066 257.705C148.213 256.408 147.762 253.853 149.06 252L151.539 248.459L171.541 262.465L173.89 259.11L153.888 245.104L157.412 240.072L177.414 254.077L179.763 250.722L159.761 236.717L163.285 231.683L183.287 245.689L185.637 242.334L165.635 228.328L167.854 225.158C169.152 223.305 171.706 222.856 173.559 224.153L176.914 226.502L179.264 223.146L170.876 217.273C168.097 215.327 167.421 211.496 169.367 208.717L181.114 191.941C183.06 189.161 186.891 188.485 189.671 190.431L198.059 196.305L200.408 192.95L197.053 190.601C195.2 189.303 194.749 186.749 196.047 184.896L198.396 181.54L218.528 195.636L216.178 198.992C214.881 200.845 212.327 201.295 210.474 199.998L207.119 197.649L204.77 201.004L213.157 206.877C215.937 208.823 216.612 212.655 214.666 215.434L211.142 220.467L215.748 223.692C219.69 219.294 224.819 215.864 230.858 213.785C231.299 213.302 231.894 212.953 232.588 212.831C233.029 212.753 233.465 212.776 233.873 212.879C234.4 212.744 234.932 212.617 235.471 212.501C235.546 213.047 235.61 213.59 235.663 214.132C235.899 214.48 236.069 214.882 236.147 215.323C237.906 225.297 236.827 233.773 232.28 240.267ZM212.492 161.409L214.842 158.053C216.139 156.201 218.694 155.751 220.547 157.048L233.968 166.446C235.821 167.743 236.271 170.297 234.973 172.15L232.624 175.506L212.492 161.409ZM206.619 169.797L210.143 164.764L230.274 178.861L226.751 183.893L206.619 169.797ZM200.745 178.185L204.27 173.152L224.401 187.248L220.877 192.281L200.745 178.185ZM200.405 217.673C203.648 213.04 202.523 206.655 197.89 203.411C193.257 200.167 186.872 201.293 183.628 205.926C180.385 210.558 181.511 216.943 186.143 220.187C190.776 223.431 197.161 222.305 200.405 217.673ZM225.569 235.293C227.191 232.977 226.628 229.784 224.311 228.162C221.995 226.54 218.802 227.103 217.181 229.419C215.559 231.736 216.122 234.928 218.438 236.55C220.754 238.172 223.947 237.609 225.569 235.293Z" fill="#2563eb"/>
<path d="M218.528 195.636L216.178 198.992C214.881 200.845 212.327 201.295 210.474 199.998L207.119 197.649L204.77 201.004L213.157 206.876C213.745 207.288 214.238 207.786 214.633 208.339C207.459 216.365 201.007 225.05 195.384 234.296C195.032 234.139 194.69 233.947 194.363 233.718L185.975 227.845L183.625 231.201L186.98 233.55C188.833 234.848 189.283 237.401 187.986 239.254L169.191 266.096C167.893 267.949 165.34 268.4 163.487 267.103L150.066 257.705C148.213 256.408 147.763 253.853 149.06 252L151.538 248.459L171.54 262.465L173.89 259.11L153.888 245.105L157.412 240.072L177.413 254.077L179.763 250.722L159.761 236.717L163.286 231.684L183.288 245.689L185.636 242.334L165.634 228.328L167.854 225.158C169.151 223.306 171.706 222.856 173.559 224.153L176.914 226.502L179.264 223.147L170.875 217.273C168.096 215.326 167.421 211.495 169.367 208.716L181.114 191.941C183.06 189.161 186.891 188.485 189.67 190.431L198.059 196.305L200.408 192.949L197.053 190.601C195.2 189.303 194.749 186.749 196.046 184.896L198.396 181.54L218.528 195.636ZM197.89 203.411C193.257 200.168 186.872 201.294 183.628 205.926C180.385 210.558 181.511 216.943 186.143 220.187C190.775 223.43 197.161 222.305 200.405 217.673C203.648 213.041 202.522 206.655 197.89 203.411ZM224.402 187.248L220.877 192.282L200.746 178.185L204.27 173.152L224.402 187.248ZM230.274 178.861L226.75 183.893L206.619 169.797L210.143 164.764L230.274 178.861ZM214.841 158.053C216.139 156.2 218.693 155.751 220.546 157.048L233.967 166.446C235.82 167.743 236.27 170.297 234.973 172.15L232.623 175.505L212.492 161.409L214.841 158.053Z" fill="#2563eb"/>
<path d="M457.258 244.766C461.806 251.261 469.403 255.174 479.376 256.933C479.818 257.01 480.254 256.987 480.662 256.884C481.189 257.019 481.721 257.146 482.26 257.262C482.335 256.716 482.397 256.172 482.45 255.63C482.686 255.282 482.858 254.882 482.935 254.44C483.058 253.747 482.933 253.068 482.63 252.488C482.742 246.102 481.272 240.111 478.489 234.902L483.095 231.677L486.619 236.709C488.565 239.489 492.396 240.163 495.176 238.217L503.563 232.344L505.913 235.7L502.558 238.049C500.705 239.347 500.255 241.9 501.552 243.753L520.347 270.595C521.644 272.448 524.199 272.899 526.052 271.602L539.473 262.204C541.325 260.907 541.776 258.352 540.479 256.499L537.999 252.958L517.997 266.964L515.648 263.609L535.65 249.603L532.126 244.571L512.124 258.576L509.775 255.221L529.777 241.216L526.253 236.182L506.251 250.188L503.902 246.833L523.904 232.827L521.684 229.657C520.386 227.804 517.832 227.354 515.979 228.652L512.624 231.001L510.274 227.645L518.662 221.772C521.442 219.825 522.117 215.995 520.171 213.215L508.425 196.44C506.478 193.66 502.647 192.984 499.868 194.93L491.479 200.804L489.13 197.449L492.485 195.099C494.338 193.802 494.789 191.248 493.492 189.395L491.142 186.039L471.01 200.135L473.36 203.491C474.658 205.344 477.211 205.794 479.064 204.497L482.419 202.148L484.769 205.503L476.381 211.376C473.601 213.322 472.926 217.154 474.872 219.933L478.396 224.966L473.791 228.19C469.848 223.793 464.719 220.362 458.68 218.283C458.239 217.801 457.644 217.452 456.95 217.33C456.509 217.252 456.074 217.275 455.666 217.378C455.139 217.243 454.606 217.115 454.068 217C453.992 217.545 453.928 218.089 453.876 218.63C453.639 218.979 453.469 219.38 453.391 219.822C451.633 229.795 452.711 238.272 457.258 244.766ZM477.046 165.908L474.697 162.552C473.399 160.699 470.844 160.25 468.992 161.547L455.571 170.944C453.718 172.242 453.268 174.796 454.565 176.649L456.915 180.004L477.046 165.908ZM482.919 174.296L479.395 169.263L459.264 183.359L462.788 188.392L482.919 174.296ZM488.793 182.684L485.268 177.651L465.137 191.747L468.661 196.78L488.793 182.684ZM489.134 222.172C485.89 217.539 487.016 211.154 491.648 207.91C496.281 204.666 502.667 205.792 505.91 210.425C509.154 215.057 508.027 221.442 503.395 224.686C498.762 227.929 492.377 226.804 489.134 222.172ZM463.969 239.792C462.348 237.475 462.911 234.283 465.227 232.661C467.543 231.039 470.736 231.602 472.358 233.918C473.979 236.234 473.416 239.427 471.1 241.049C468.784 242.671 465.591 242.108 463.969 239.792Z" fill="#2563eb"/>
<path d="M471.011 200.135L473.36 203.491C474.658 205.344 477.211 205.794 479.064 204.497L482.42 202.147L484.768 205.503L476.382 211.375C475.793 211.787 475.3 212.285 474.905 212.838C482.08 220.864 488.532 229.549 494.154 238.795C494.506 238.638 494.848 238.446 495.176 238.217L503.563 232.344L505.913 235.7L502.558 238.049C500.706 239.346 500.255 241.9 501.553 243.753L520.347 270.595C521.645 272.448 524.199 272.899 526.052 271.602L539.472 262.204C541.325 260.907 541.776 258.352 540.478 256.499L538 252.958L517.998 266.964L515.648 263.608L535.65 249.604L532.127 244.57L512.125 258.576L509.775 255.221L529.777 241.216L526.253 236.183L506.251 250.188L503.902 246.833L523.904 232.827L521.684 229.657C520.387 227.804 517.832 227.354 515.979 228.651L512.624 231.001L510.274 227.646L518.663 221.772C521.442 219.825 522.118 215.994 520.172 213.215L508.425 196.439C506.478 193.66 502.647 192.984 499.868 194.93L491.479 200.804L489.131 197.448L492.485 195.1C494.338 193.802 494.789 191.248 493.492 189.395L491.142 186.039L471.011 200.135ZM491.648 207.91C496.281 204.667 502.666 205.792 505.91 210.425C509.153 215.057 508.028 221.442 503.395 224.686C498.763 227.929 492.377 226.804 489.134 222.172C485.89 217.539 487.016 211.154 491.648 207.91ZM465.137 191.747L468.661 196.78L488.793 182.684L485.268 177.65L465.137 191.747ZM459.264 183.359L462.788 188.392L482.92 174.296L479.395 169.263L459.264 183.359ZM474.697 162.552C473.4 160.699 470.845 160.25 468.992 161.547L455.571 170.944C453.718 172.242 453.268 174.795 454.565 176.648L456.915 180.004L477.047 165.908L474.697 162.552Z" fill="#2563eb"/>
<path d="M419.753 438.901C414.657 444.975 412.843 453.325 413.726 463.414C413.765 463.861 413.9 464.276 414.106 464.643C414.111 465.187 414.126 465.735 414.154 466.285C414.701 466.216 415.243 466.135 415.779 466.046C416.177 466.184 416.608 466.246 417.054 466.207C417.756 466.146 418.38 465.85 418.861 465.407C425.058 463.862 430.465 460.892 434.776 456.855L439.084 460.469L435.135 465.176C432.954 467.775 433.293 471.65 435.893 473.831L443.737 480.413L441.103 483.551L437.966 480.919C436.233 479.465 433.65 479.691 432.196 481.423L411.133 506.525C409.679 508.258 409.904 510.842 411.637 512.296L424.188 522.827C425.921 524.281 428.505 524.055 429.959 522.322L432.738 519.011L414.033 503.316L416.665 500.178L435.37 515.874L439.319 511.167L420.614 495.472L423.247 492.334L441.952 508.03L445.902 503.323L427.196 487.627L429.829 484.49L448.534 500.185L451.022 497.221C452.476 495.488 452.249 492.904 450.516 491.45L447.379 488.817L450.012 485.679L457.857 492.261C460.456 494.442 464.331 494.103 466.512 491.504L479.676 475.816C481.857 473.217 481.518 469.341 478.919 467.16L471.075 460.578L473.708 457.44L476.845 460.073C478.578 461.527 481.162 461.301 482.616 459.569L485.249 456.43L466.423 440.633L463.789 443.771C462.336 445.504 462.562 448.088 464.294 449.542L467.432 452.174L464.799 455.312L456.955 448.73C454.356 446.549 450.48 446.888 448.299 449.487L444.35 454.194L440.043 450.58C443.27 445.633 445.257 439.792 445.702 433.42C446.054 432.869 446.236 432.204 446.175 431.502C446.136 431.056 446.001 430.641 445.796 430.274C445.79 429.73 445.775 429.183 445.748 428.633C445.201 428.701 444.659 428.78 444.123 428.869C443.725 428.731 443.293 428.671 442.847 428.71C432.758 429.592 424.85 432.828 419.753 438.901ZM501.046 437.605L503.679 434.466C505.133 432.734 504.906 430.15 503.174 428.696L490.623 418.164C488.89 416.71 486.307 416.937 484.853 418.669L482.219 421.807L501.046 437.605ZM494.464 445.448L498.413 440.742L479.587 424.945L475.638 429.651L494.464 445.448ZM487.882 453.293L491.832 448.586L473.005 432.789L469.055 437.496L487.882 453.293ZM449.828 463.842C453.463 459.51 459.922 458.945 464.255 462.58C468.587 466.215 469.152 472.675 465.517 477.007C461.882 481.339 455.423 481.903 451.091 478.268C446.758 474.633 446.193 468.175 449.828 463.842ZM426.295 444.096C428.113 441.93 431.342 441.647 433.509 443.465C435.674 445.283 435.957 448.512 434.14 450.678C432.322 452.844 429.092 453.127 426.926 451.309C424.76 449.492 424.478 446.262 426.295 444.096Z" fill="#2563eb"/>
<path d="M466.423 440.633L463.789 443.771C462.336 445.504 462.562 448.088 464.294 449.542L467.432 452.175L464.799 455.312L456.956 448.73C456.406 448.269 455.797 447.921 455.161 447.683C449.266 456.69 442.546 465.17 435.07 472.994C435.313 473.293 435.587 473.574 435.893 473.831L443.737 480.413L441.103 483.551L437.966 480.919C436.233 479.465 433.65 479.691 432.196 481.424L411.133 506.525C409.679 508.258 409.905 510.842 411.637 512.296L424.188 522.827C425.921 524.281 428.505 524.055 429.959 522.322L432.738 519.012L414.032 503.316L416.665 500.178L435.37 515.874L439.32 511.168L420.614 495.472L423.247 492.334L441.952 508.03L445.901 503.323L427.197 487.627L429.829 484.49L448.535 500.186L451.022 497.221C452.476 495.489 452.249 492.904 450.517 491.45L447.379 488.817L450.012 485.679L457.857 492.262C460.456 494.442 464.332 494.104 466.513 491.505L479.676 475.816C481.857 473.217 481.519 469.341 478.92 467.16L471.075 460.578L473.708 457.441L476.845 460.073C478.578 461.527 481.162 461.301 482.616 459.569L485.249 456.431L466.423 440.633ZM464.254 462.58C468.586 466.215 469.152 472.675 465.516 477.007C461.881 481.339 455.423 481.903 451.091 478.269C446.759 474.634 446.193 468.175 449.828 463.842C453.463 459.51 459.922 458.945 464.254 462.58ZM473.005 432.788L469.055 437.495L487.882 453.293L491.832 448.586L473.005 432.788ZM479.587 424.946L475.638 429.651L494.464 445.449L498.413 440.742L479.587 424.946ZM503.68 434.467C505.133 432.734 504.906 430.15 503.174 428.696L490.623 418.165C488.89 416.711 486.307 416.937 484.853 418.67L482.22 421.808L501.046 437.605L503.68 434.467Z" fill="#2563eb"/>
<path d="M413.902 177.464C424.624 173.642 435.147 173.007 443.139 178.602C451.131 184.198 454.134 194.304 454.209 205.687C454.285 217.264 451.389 231.675 445.849 248.127C445.207 250.035 444.529 251.966 443.819 253.918C453.823 268.193 460.965 284.619 464.411 302.366C472.566 306.637 480.197 311.025 487.203 315.493C503.65 325.981 516.297 336.672 524.34 347.086C532.311 357.407 536.458 368.43 533.632 378.976C530.807 389.522 521.704 396.995 509.641 401.948C497.468 406.945 481.169 409.88 461.681 410.74C453.266 411.111 444.335 411.089 434.998 410.695C411.731 437.055 377.693 453.683 339.769 453.683C328.329 453.683 317.242 452.168 306.698 449.332C305.343 450.459 303.995 451.56 302.655 452.63C289.09 463.463 276.538 471.112 265.633 475C255.079 478.763 244.717 479.438 236.772 474.121L236.396 473.863C228.404 468.266 225.402 458.16 225.327 446.777C225.251 435.2 228.145 420.789 233.685 404.337C234.259 402.633 234.861 400.91 235.489 399.17C225.739 385.166 218.738 369.105 215.267 351.768C207.059 347.474 199.38 343.061 192.335 338.568C175.887 328.079 163.239 317.388 155.196 306.973C147.226 296.653 143.079 285.63 145.905 275.084L146.042 274.592C149.016 264.306 158.022 256.989 169.896 252.114C182.069 247.116 198.367 244.181 217.855 243.322C226.106 242.958 234.853 242.97 243.992 243.342C267.27 216.621 301.548 199.733 339.769 199.733C350.897 199.733 361.69 201.164 371.975 203.853C373.62 202.472 375.255 201.132 376.88 199.834C390.445 189.002 402.997 181.352 413.902 177.464ZM244.53 410.686C239.765 425.387 237.554 437.518 237.614 446.697C237.679 456.568 240.313 461.605 243.444 463.797C246.575 465.989 252.208 466.742 261.506 463.427C270.118 460.357 280.71 454.166 292.835 444.724C274.138 437.282 257.626 425.527 244.53 410.686ZM339.518 207.499C324.907 207.499 310.909 210.122 297.968 214.921C290.448 221.004 283.667 228.628 277.813 237.408C274.366 242.578 271.221 248.175 268.414 254.135C261.922 257.106 255.848 260.473 250.27 264.192C241.556 270.001 233.981 276.725 227.921 284.177C222.816 297.471 220.018 311.908 220.018 326.999C220.018 341.214 222.502 354.85 227.057 367.497C233.255 375.381 241.137 382.475 250.27 388.564C255.592 392.112 261.366 395.339 267.522 398.208C270.55 404.893 273.996 411.14 277.813 416.866C283.504 425.403 290.074 432.845 297.345 438.842C310.46 443.79 324.673 446.499 339.518 446.499C355.04 446.499 369.87 443.538 383.476 438.153C390.42 432.278 396.71 425.079 402.185 416.866C406.002 411.141 409.447 404.893 412.474 398.208C418.631 395.339 424.406 392.112 429.728 388.564C438.015 383.039 445.27 376.686 451.173 369.667C456.241 356.416 459.018 342.032 459.018 326.999C459.018 311.087 455.907 295.903 450.262 282.019C444.53 275.423 437.593 269.435 429.728 264.192C424.15 260.473 418.075 257.106 411.584 254.135C408.777 248.175 405.632 242.578 402.185 237.408C396.549 228.953 390.051 221.57 382.863 215.604C369.425 210.371 354.807 207.499 339.518 207.499ZM315.844 411.876C322.048 412.677 328.405 413.176 334.88 413.348V443.043C332.75 441.843 330.467 439.844 328.078 436.812C323.683 431.235 319.501 422.848 315.894 412.028C315.877 411.978 315.861 411.927 315.844 411.876ZM364.105 412.028C360.498 422.848 356.316 431.235 351.922 436.812C349.532 439.844 347.249 441.842 345.12 443.042V413.348C351.594 413.176 357.951 412.677 364.154 411.876C364.137 411.927 364.122 411.978 364.105 412.028ZM281.934 404.018C289.111 406.494 296.673 408.521 304.537 410.051C305.068 411.834 305.615 413.573 306.179 415.266C309.389 424.894 313.194 433.236 317.549 439.727C305.84 434.201 295.151 424.413 286.334 411.186C284.805 408.892 283.337 406.501 281.934 404.018ZM398.065 404.017C396.662 406.5 395.195 408.892 393.666 411.186C384.848 424.413 374.158 434.201 362.448 439.727C366.804 433.236 370.611 424.894 373.82 415.266C374.384 413.573 374.931 411.834 375.462 410.051C383.326 408.521 390.888 406.493 398.065 404.017ZM306.986 371.361C315.94 372.179 325.278 372.67 334.88 372.799V403.104C327.257 402.89 319.831 402.201 312.667 401.083C310.338 392.145 308.412 382.151 306.986 371.361ZM373.011 371.361C371.585 382.151 369.661 392.145 367.332 401.083C360.167 402.201 352.742 402.89 345.12 403.104V372.799C354.721 372.67 364.058 372.178 373.011 371.361ZM267.295 365.047C276.26 367.19 286.073 368.941 296.519 370.237C297.791 380.492 299.501 390.138 301.59 398.97C292.236 396.852 283.428 393.984 275.327 390.487C272.023 382.607 269.31 374.079 267.295 365.047ZM412.703 365.047C410.687 374.079 407.975 382.607 404.672 390.487C396.57 393.984 387.761 396.852 378.407 398.97C380.496 390.138 382.207 380.492 383.479 370.237C393.925 368.941 403.737 367.19 412.703 365.047ZM466.406 317.408C466.628 320.479 466.744 323.581 466.744 326.708C466.744 353.43 458.487 378.223 444.388 398.678C450.185 398.77 455.78 398.7 461.14 398.463C479.877 397.637 494.614 394.833 504.974 390.58C515.443 386.281 520.373 380.989 521.764 375.795C523.156 370.602 521.533 363.554 514.616 354.597C507.771 345.734 496.409 335.938 480.595 325.854C476.134 323.009 471.395 320.189 466.406 317.408ZM452.144 349.75C446.545 361.098 436.927 371.459 424.048 380.044C422.146 381.313 420.175 382.538 418.142 383.719C420.444 376.826 422.336 369.588 423.774 362.076C425.389 361.59 426.967 361.091 428.507 360.578C437.732 357.503 445.777 353.879 452.144 349.75ZM227.854 349.75C234.222 353.879 242.266 357.503 251.491 360.578C253.031 361.091 254.609 361.59 256.223 362.076C257.661 369.587 259.553 376.825 261.855 383.718C259.823 382.537 257.853 381.312 255.951 380.044C243.072 371.458 233.453 361.098 227.854 349.75ZM311.856 331.877C314.1 343.428 323.276 352.502 334.88 354.593V362.558C324.799 362.418 315.055 361.869 305.794 360.961C304.886 351.701 304.338 341.958 304.198 331.877H311.856ZM375.8 331.877C375.661 341.958 375.111 351.701 374.204 360.962C364.943 361.87 355.2 362.418 345.12 362.558V354.593C356.723 352.501 365.898 343.427 368.142 331.877H375.8ZM293.958 331.877C294.087 341.479 294.577 350.816 295.395 359.77C284.421 358.319 274.27 356.353 265.216 353.97C264.125 346.841 263.458 339.456 263.261 331.877H293.958ZM416.738 331.877C416.541 339.455 415.873 346.84 414.782 353.969C405.728 356.352 395.577 358.319 384.602 359.77C385.42 350.816 385.912 341.479 386.042 331.877H416.738ZM253.018 331.877C253.176 338.299 253.654 344.606 254.43 350.762C243.755 347.178 235.47 343.034 229.945 338.679C226.913 336.289 224.913 334.007 223.713 331.877H253.018ZM456.286 331.877C455.085 334.007 453.085 336.29 450.053 338.679C444.528 343.034 436.242 347.178 425.565 350.762C426.342 344.606 426.822 338.299 426.98 331.877H456.286ZM234.712 255.375C229.071 255.293 223.623 255.368 218.397 255.598C199.66 256.425 184.923 259.227 174.563 263.48C164.094 267.778 159.165 273.071 157.773 278.264C156.382 283.458 158.004 290.506 164.922 299.463C171.767 308.327 183.128 318.123 198.941 328.208C203.417 331.062 208.174 333.89 213.18 336.68C212.925 333.39 212.794 330.064 212.794 326.708C212.794 300.263 220.879 275.707 234.712 255.375ZM254.533 302.717C253.728 308.883 253.224 315.202 253.04 321.637H223.713C224.913 319.507 226.913 317.225 229.945 314.835C235.488 310.467 243.808 306.309 254.533 302.717ZM295.395 293.744C294.577 302.698 294.087 312.036 293.958 321.637H263.284C263.513 314.044 264.214 306.647 265.34 299.511C274.362 297.143 284.471 295.188 295.395 293.744ZM334.88 298.162C323.023 300.299 313.701 309.727 311.719 321.637H304.198C304.338 311.557 304.886 301.813 305.794 292.552C315.055 291.645 324.799 291.095 334.88 290.956V298.162ZM345.12 290.956C355.2 291.095 364.943 291.645 374.204 292.552C375.111 301.813 375.661 311.557 375.8 321.637H368.279C366.297 309.727 356.976 300.299 345.12 298.162V290.956ZM384.602 293.744C395.527 295.188 405.636 297.143 414.658 299.511C415.785 306.647 416.485 314.044 416.715 321.637H386.042C385.912 312.036 385.42 302.698 384.602 293.744ZM425.464 302.717C436.189 306.309 444.51 310.467 450.053 314.835C453.085 317.225 455.085 319.507 456.286 321.637H426.959C426.775 315.202 426.269 308.883 425.464 302.717ZM417.499 268.666C419.761 269.961 421.946 271.311 424.048 272.712C437.346 281.577 447.168 292.334 452.678 304.117C446.229 299.841 437.993 296.099 428.507 292.937C426.918 292.407 425.287 291.893 423.618 291.392C422.065 283.481 420.009 275.877 417.499 268.666ZM262.498 268.666C259.988 275.878 257.932 283.481 256.38 291.392C254.711 291.892 253.08 292.407 251.491 292.937C242.006 296.099 233.769 299.84 227.32 304.116C232.83 292.333 242.654 281.577 255.951 272.712C258.052 271.311 260.237 269.962 262.498 268.666ZM301.784 253.741C299.607 262.79 297.83 272.71 296.519 283.277C286.144 284.564 276.393 286.3 267.476 288.422C269.635 278.976 272.557 270.088 276.122 261.928C284.059 258.561 292.663 255.794 301.784 253.741ZM378.214 253.741C387.335 255.794 395.939 258.561 403.877 261.928C407.441 270.088 410.363 278.976 412.521 288.422C403.605 286.3 393.853 284.565 383.478 283.278C382.167 272.71 380.39 262.791 378.214 253.741ZM334.88 280.714C325.278 280.844 315.94 281.335 306.986 282.153C308.455 271.043 310.453 260.778 312.876 251.64C319.976 250.541 327.331 249.863 334.88 249.651V280.714ZM345.12 249.651C352.667 249.863 360.022 250.541 367.122 251.64C369.544 260.778 371.544 271.043 373.012 282.153C364.059 281.335 354.721 280.844 345.12 280.714V249.651ZM363.172 214.893C374.598 220.478 385.029 230.134 393.666 243.088C394.803 244.794 395.905 246.554 396.973 248.366C390.049 246.033 382.774 244.115 375.22 242.657C374.766 241.155 374.299 239.686 373.82 238.25C370.79 229.159 367.226 221.216 363.172 214.893ZM316.827 214.893C312.772 221.215 309.209 229.159 306.179 238.25C305.701 239.686 305.232 241.155 304.777 242.657C297.224 244.115 289.949 246.033 283.025 248.365C284.093 246.554 285.197 244.794 286.334 243.088C294.97 230.134 305.4 220.478 316.827 214.893ZM436.091 188.668C432.96 186.477 427.327 185.723 418.029 189.039C409.227 192.177 398.354 198.573 385.892 208.372C404.814 215.752 421.53 227.54 434.779 242.474C439.701 227.46 441.983 215.091 441.922 205.768C441.856 195.896 439.222 190.86 436.091 188.667V188.668ZM334.88 239.407C328.498 239.577 322.23 240.061 316.111 240.842C319.668 230.334 323.771 222.169 328.078 216.704C330.468 213.671 332.75 211.671 334.88 210.47V239.407ZM345.12 210.471C347.25 211.672 349.532 213.672 351.922 216.704C356.229 222.169 360.33 230.334 363.887 240.842C357.769 240.061 351.501 239.577 345.12 239.407V210.471Z" fill="#2563eb"/>
</g>
<defs>
<filter id="filter0_d_4_2" x="80" y="67" width="519.998" height="519.998" filterUnits="userSpaceOnUse" color-interpolation-filters="sRGB">
<feFlood flood-opacity="0" result="BackgroundImageFix"/>
<feColorMatrix in="SourceAlpha" type="matrix" values="0 0 0 0 0 0 0 0 0 0 0 0 0 0 0 0 0 0 127 0" result="hardAlpha"/>
<feOffset dy="1"/>
<feGaussianBlur stdDeviation="2"/>
<feColorMatrix type="matrix" values="0 0 0 0 0 0 0 0 0 0 0 0 0 0 0 0 0 0 0.15 0"/>
<feBlend mode="normal" in2="BackgroundImageFix" result="effect1_dropShadow_4_2"/>
<feBlend mode="normal" in="SourceGraphic" in2="effect1_dropShadow_4_2" result="shape"/>
</filter>
</defs>
</svg>
